<?xml version="1.0" encoding="UTF-8" standalone="no"?>
<svg
   xmlns:dc="http://purl.org/dc/elements/1.1/"
   xmlns:cc="http://creativecommons.org/ns#"
   xmlns:rdf="http://www.w3.org/1999/02/22-rdf-syntax-ns#"
   xmlns:svg="http://www.w3.org/2000/svg"
   xmlns="http://www.w3.org/2000/svg"
   xmlns:sodipodi="http://sodipodi.sourceforge.net/DTD/sodipodi-0.dtd"
   xmlns:inkscape="http://www.inkscape.org/namespaces/inkscape"
   version="1.1"
   width="9.9695cm"
   height="5.22224cm"
   viewBox="0 0 39250 20560 "
   id="svg302"
   sodipodi:docname="horizontal_lockup.svg"
   inkscape:version="0.92.4 (5da689c313, 2019-01-14)"
   inkscape:export-filename="C:\Users\ObsoleteK\Documents\Work\Logo\Exports\Nick\horizontal_lockup_800dpi.png"
   inkscape:export-xdpi="800"
   inkscape:export-ydpi="800">
  <metadata
     id="metadata308">
    <rdf:RDF>
      <cc:Work
         rdf:about="">
        <dc:format>image/svg+xml</dc:format>
        <dc:type
           rdf:resource="http://purl.org/dc/dcmitype/StillImage" />
      </cc:Work>
    </rdf:RDF>
  </metadata>
  <defs
     id="defs306" />
  <sodipodi:namedview
     pagecolor="#ffffff"
     bordercolor="#666666"
     borderopacity="1"
     objecttolerance="10"
     gridtolerance="10"
     guidetolerance="10"
     inkscape:pageopacity="0"
     inkscape:pageshadow="2"
     inkscape:window-width="1920"
     inkscape:window-height="1017"
     id="namedview304"
     showgrid="false"
     inkscape:zoom="3.0467092"
     inkscape:cx="144.20309"
     inkscape:cy="123.97736"
     inkscape:window-x="-8"
     inkscape:window-y="-8"
     inkscape:window-maximized="1"
     inkscape:current-layer="g234" />
  <title
     id="title2">SVG Picture created as Logo-F_Cu.svg date 2020/05/06 04:33:08 </title>
  <desc
     id="desc4">Picture generated by PCBNEW </desc>
  <g
     style="fill:#000000; fill-opacity:1;stroke:#000000; stroke-opacity:1; stroke-linecap:round; stroke-linejoin:round; "
     transform="translate(0 0) scale(1 1)"
     id="g6" />
  <g
     style="fill:#000000; fill-opacity:0.0;  stroke:#000000; stroke-width:-0.000393701; stroke-opacity:1;  stroke-linecap:round; stroke-linejoin:round;"
     id="g8" />
  <g
     style="fill:#000000; fill-opacity:0.0;  stroke:#000000; stroke-width:236.22; stroke-opacity:1;  stroke-linecap:round; stroke-linejoin:round;"
     id="g12">
    <path
       d="M14473 3605 L14473 17105 "
       id="path10" />
  </g>
  <g
     style="fill:#000000; fill-opacity:0.0;  stroke:#000000; stroke-width:314.961; stroke-opacity:1;  stroke-linecap:round; stroke-linejoin:round;"
     id="g234">
    <text
       x="28223.2"
       y="11142.7"
       textLength="22156.7"
       font-size="2099.74"
       lengthAdjust="spacingAndGlyphs"
       text-anchor="middle"
       opacity="0"
       id="text14">Probably an Asian</text>
    <path
       d="M17724 11067 L17724 9492 L18324 9492 L18474 9567 L18549 9642 L18624 9792 L18624 10017 L18549 10167 L18474 10242 L18324 10317 L17724 10317 "
       id="path16" />
    <path
       d="M19299 11067 L19299 10017 "
       id="path18" />
    <path
       d="M19299 10317 L19374 10167 L19449 10092 L19599 10017 L19749 10017 "
       id="path20" />
    <path
       d="M20499 11067 L20349 10992 L20274 10917 L20199 10767 L20199 10317 L20274 10167 L20349 10092 L20499 10017 L20724 10017 L20874 10092 L20949 10167 L21024 10317 L21024 10767 L20949 10917 L20874 10992 L20724 11067 L20499 11067 "
       id="path22" />
    <path
       d="M21699 11067 L21699 9492 "
       id="path24" />
    <path
       d="M21699 10092 L21848 10017 L22148 10017 L22298 10092 L22373 10167 L22448 10317 L22448 10767 L22373 10917 L22298 10992 L22148 11067 L21848 11067 L21699 10992 "
       id="path26" />
    <path
       d="M23798 11067 L23798 10242 L23723 10092 L23573 10017 L23273 10017 L23123 10092 "
       id="path28" />
    <path
       d="M23798 10992 L23648 11067 L23273 11067 L23123 10992 L23048 10842 L23048 10692 L23123 10542 L23273 10467 L23648 10467 L23798 10392 "
       id="path30" />
    <path
       d="M24548 11067 L24548 9492 "
       id="path32" />
    <path
       d="M24548 10092 L24698 10017 L24998 10017 L25148 10092 L25223 10167 L25298 10317 L25298 10767 L25223 10917 L25148 10992 L24998 11067 L24698 11067 L24548 10992 "
       id="path34" />
    <path
       d="M26198 11067 L26048 10992 L25973 10842 L25973 9492 "
       id="path36" />
    <path
       d="M26648 10017 L27023 11067 "
       id="path38" />
    <path
       d="M27398 10017 L27023 11067 L26873 11442 L26798 11517 L26648 11592 "
       id="path40" />
    <path
       d="M29872 11067 L29872 10242 L29797 10092 L29648 10017 L29348 10017 L29198 10092 "
       id="path42" />
    <path
       d="M29872 10992 L29723 11067 L29348 11067 L29198 10992 L29123 10842 L29123 10692 L29198 10542 L29348 10467 L29723 10467 L29872 10392 "
       id="path44" />
    <path
       d="M30622 10017 L30622 11067 "
       id="path46" />
    <path
       d="M30622 10167 L30697 10092 L30847 10017 L31072 10017 L31222 10092 L31297 10242 L31297 11067 "
       id="path48" />
    <path
       d="M33172 10617 L33922 10617 "
       id="path50" />
    <path
       d="M33022 11067 L33547 9492 L34072 11067 "
       id="path52" />
    <path
       d="M34522 10992 L34672 11067 L34972 11067 L35122 10992 L35197 10842 L35197 10767 L35122 10617 L34972 10542 L34747 10542 L34597 10467 L34522 10317 L34522 10242 L34597 10092 L34747 10017 L34972 10017 L35122 10092 "
       id="path54" />
    <path
       d="M35872 11067 L35872 10017 "
       id="path56" />
    <path
       d="M35872 9492 L35797 9567 L35872 9642 L35947 9567 L35872 9492 L35872 9642 "
       id="path58" />
    <path
       d="M37297 11067 L37297 10242 L37222 10092 L37072 10017 L36772 10017 L36622 10092 "
       id="path60" />
    <path
       d="M37297 10992 L37147 11067 L36772 11067 L36622 10992 L36547 10842 L36547 10692 L36622 10542 L36772 10467 L37147 10467 L37297 10392 "
       id="path62" />
    <path
       d="M38046 10017 L38046 11067 "
       id="path64" />
    <path
       d="M38046 10167 L38121 10092 L38271 10017 L38496 10017 L38646 10092 L38721 10242 L38721 11067 "
       id="path66" />
    <g
       id="g68" />
    <g
       style="fill:#000000; fill-opacity:1.0;  stroke:#000000; stroke-width:0; stroke-opacity:1;  stroke-linecap:round; stroke-linejoin:round;"
       id="g72">
      <circle
         cx="8723.19"
         cy="19605.3"
         r="196.85"
         id="circle70" />
    </g>
    <g
       style="fill:#000000; fill-opacity:1.0;  stroke:#000000; stroke-width:3.93701; stroke-opacity:1;  stroke-linecap:round; stroke-linejoin:round;"
       id="g74" />
    <g
       id="g76" />
    <g
       style="fill:#000000; fill-opacity:1.0;  stroke:#000000; stroke-width:3.93701; stroke-opacity:1;  stroke-linecap:round; stroke-linejoin:round;"
       id="g78" />
    <g
       style="fill:#000000; fill-opacity:1.0;  stroke:#000000; stroke-width:0; stroke-opacity:1;  stroke-linecap:round; stroke-linejoin:round;"
       id="g82">
      <circle
         cx="7623.19"
         cy="19605.3"
         r="196.85"
         id="circle80" />
    </g>
    <g
       style="fill:#000000; fill-opacity:1.0;  stroke:#000000; stroke-width:3.93701; stroke-opacity:1;  stroke-linecap:round; stroke-linejoin:round;"
       id="g84" />
    <g
       id="g86" />
    <g
       style="fill:#000000; fill-opacity:1.0;  stroke:#000000; stroke-width:3.93701; stroke-opacity:1;  stroke-linecap:round; stroke-linejoin:round;"
       id="g88" />
    <g
       style="fill:#000000; fill-opacity:1.0;  stroke:#000000; stroke-width:0; stroke-opacity:1;  stroke-linecap:round; stroke-linejoin:round;"
       id="g92">
      <circle
         cx="6523.19"
         cy="19605.3"
         r="196.85"
         id="circle90" />
    </g>
    <g
       style="fill:#000000; fill-opacity:1.0;  stroke:#000000; stroke-width:3.93701; stroke-opacity:1;  stroke-linecap:round; stroke-linejoin:round;"
       id="g94" />
    <g
       id="g96" />
    <g
       style="fill:#000000; fill-opacity:1.0;  stroke:#000000; stroke-width:3.93701; stroke-opacity:1;  stroke-linecap:round; stroke-linejoin:round;"
       id="g98" />
    <g
       style="fill:#000000; fill-opacity:1.0;  stroke:#000000; stroke-width:0; stroke-opacity:1;  stroke-linecap:round; stroke-linejoin:round;"
       id="g102">
      <circle
         cx="5423.19"
         cy="19605.3"
         r="196.85"
         id="circle100" />
    </g>
    <g
       style="fill:#000000; fill-opacity:1.0;  stroke:#000000; stroke-width:3.93701; stroke-opacity:1;  stroke-linecap:round; stroke-linejoin:round;"
       id="g104" />
    <g
       id="g106" />
    <g
       style="fill:#000000; fill-opacity:1.0;  stroke:#000000; stroke-width:3.93701; stroke-opacity:1;  stroke-linecap:round; stroke-linejoin:round;"
       id="g108" />
    <g
       style="fill:#000000; fill-opacity:1.0;  stroke:#000000; stroke-width:0; stroke-opacity:1;  stroke-linecap:round; stroke-linejoin:round;"
       id="g112">
      <circle
         cx="4323.19"
         cy="19605.3"
         r="196.85"
         id="circle110" />
    </g>
    <g
       style="fill:#000000; fill-opacity:1.0;  stroke:#000000; stroke-width:3.93701; stroke-opacity:1;  stroke-linecap:round; stroke-linejoin:round;"
       id="g114" />
    <g
       id="g116" />
    <g
       style="fill:#000000; fill-opacity:1.0;  stroke:#000000; stroke-width:3.93701; stroke-opacity:1;  stroke-linecap:round; stroke-linejoin:round;"
       id="g118" />
    <g
       style="fill:#000000; fill-opacity:1.0;  stroke:#000000; stroke-width:0; stroke-opacity:1;  stroke-linecap:round; stroke-linejoin:round;"
       id="g122">
      <circle
         cx="3223.19"
         cy="19605.3"
         r="196.85"
         id="circle120" />
    </g>
    <g
       style="fill:#000000; fill-opacity:1.0;  stroke:#000000; stroke-width:3.93701; stroke-opacity:1;  stroke-linecap:round; stroke-linejoin:round;"
       id="g124" />
    <g
       id="g126" />
    <g
       style="fill:#000000; fill-opacity:1.0;  stroke:#000000; stroke-width:3.93701; stroke-opacity:1;  stroke-linecap:round; stroke-linejoin:round;"
       id="g128" />
    <g
       style="fill:#000000; fill-opacity:1.0;  stroke:#000000; stroke-width:0; stroke-opacity:1;  stroke-linecap:round; stroke-linejoin:round;"
       id="g132">
      <path
         style="stroke-width:0"
         d="M 107.74219 64.431641 A 3.7795294 3.7795294 0 0 0 103.96289 68.210938 A 3.7795294 3.7795294 0 0 0 107.74219 71.990234 A 3.7795294 3.7795294 0 0 0 111.52148 68.210938 A 3.7795294 3.7795294 0 0 0 107.74219 64.431641 z M 107.74219 66.320312 A 1.88976 1.88976 0 0 1 109.63281 68.210938 A 1.88976 1.88976 0 0 1 107.74219 70.101562 A 1.88976 1.88976 0 0 1 105.85352 68.210938 A 1.88976 1.88976 0 0 1 107.74219 66.320312 z "
         transform="scale(104.16667)"
         id="circle130" />
    </g>
    <g
       style="fill:#000000; fill-opacity:1.0;  stroke:#000000; stroke-width:3.93701; stroke-opacity:1;  stroke-linecap:round; stroke-linejoin:round;"
       id="g134" />
    <g
       id="g136" />
    <g
       style="fill:#000000; fill-opacity:1.0;  stroke:#000000; stroke-width:3.93701; stroke-opacity:1;  stroke-linecap:round; stroke-linejoin:round;"
       id="g138" />
    <g
       style="fill:#000000; fill-opacity:1.0;  stroke:#000000; stroke-width:0; stroke-opacity:1;  stroke-linecap:round; stroke-linejoin:round;"
       id="g142">
      <path
         style="stroke-width:0"
         d="M 98.142578 35.630859 A 3.7795294 3.7795294 0 0 0 94.363281 39.410156 A 3.7795294 3.7795294 0 0 0 98.142578 43.191406 A 3.7795294 3.7795294 0 0 0 101.92188 39.410156 A 3.7795294 3.7795294 0 0 0 98.142578 35.630859 z M 98.142578 37.521484 A 1.88976 1.88976 0 0 1 100.0332 39.410156 A 1.88976 1.88976 0 0 1 98.142578 41.300781 A 1.88976 1.88976 0 0 1 96.253906 39.410156 A 1.88976 1.88976 0 0 1 98.142578 37.521484 z "
         transform="scale(104.16667)"
         id="circle140" />
    </g>
    <g
       style="fill:#000000; fill-opacity:1.0;  stroke:#000000; stroke-width:3.93701; stroke-opacity:1;  stroke-linecap:round; stroke-linejoin:round;"
       id="g144" />
    <g
       id="g146" />
    <g
       style="fill:#000000; fill-opacity:1.0;  stroke:#000000; stroke-width:3.93701; stroke-opacity:1;  stroke-linecap:round; stroke-linejoin:round;"
       id="g148" />
    <g
       style="fill:#000000; fill-opacity:1.0;  stroke:#000000; stroke-width:0; stroke-opacity:1;  stroke-linecap:round; stroke-linejoin:round;"
       id="g152">
      <path
         style="stroke-width:0"
         d="M 88.542969 6.8320312 A 3.7795294 3.7795294 0 0 0 84.763672 10.611328 A 3.7795294 3.7795294 0 0 0 88.542969 14.390625 A 3.7795294 3.7795294 0 0 0 92.322266 10.611328 A 3.7795294 3.7795294 0 0 0 88.542969 6.8320312 z M 88.542969 8.7207031 A 1.88976 1.88976 0 0 1 90.431641 10.611328 A 1.88976 1.88976 0 0 1 88.542969 12.5 A 1.88976 1.88976 0 0 1 86.652344 10.611328 A 1.88976 1.88976 0 0 1 88.542969 8.7207031 z "
         transform="scale(104.16667)"
         id="circle150" />
    </g>
    <g
       style="fill:#000000; fill-opacity:1.0;  stroke:#000000; stroke-width:3.93701; stroke-opacity:1;  stroke-linecap:round; stroke-linejoin:round;"
       id="g154" />
    <g
       id="g156" />
    <g
       style="fill:#000000; fill-opacity:1.0;  stroke:#000000; stroke-width:3.93701; stroke-opacity:1;  stroke-linecap:round; stroke-linejoin:round;"
       id="g158" />
    <g
       style="fill:#000000; fill-opacity:1.0;  stroke:#000000; stroke-width:0; stroke-opacity:1;  stroke-linecap:round; stroke-linejoin:round;"
       id="g162">
      <path
         style="stroke-width:0"
         d="M 26.142578 6.8320312 A 3.7795294 3.7795294 0 0 0 22.363281 10.611328 A 3.7795294 3.7795294 0 0 0 26.142578 14.390625 A 3.7795294 3.7795294 0 0 0 29.921875 10.611328 A 3.7795294 3.7795294 0 0 0 26.142578 6.8320312 z M 26.142578 8.7207031 A 1.88976 1.88976 0 0 1 28.033203 10.611328 A 1.88976 1.88976 0 0 1 26.142578 12.5 A 1.88976 1.88976 0 0 1 24.251953 10.611328 A 1.88976 1.88976 0 0 1 26.142578 8.7207031 z "
         transform="scale(104.16667)"
         id="circle160" />
    </g>
    <g
       style="fill:#000000; fill-opacity:1.0;  stroke:#000000; stroke-width:3.93701; stroke-opacity:1;  stroke-linecap:round; stroke-linejoin:round;"
       id="g164" />
    <g
       id="g166" />
    <g
       style="fill:#000000; fill-opacity:1.0;  stroke:#000000; stroke-width:3.93701; stroke-opacity:1;  stroke-linecap:round; stroke-linejoin:round;"
       id="g168" />
    <g
       style="fill:#000000; fill-opacity:1.0;  stroke:#000000; stroke-width:0; stroke-opacity:1;  stroke-linecap:round; stroke-linejoin:round;"
       id="g172">
      <path
         style="stroke-width:0"
         d="M 16.542969 35.630859 A 3.7795294 3.7795294 0 0 0 12.763672 39.410156 A 3.7795294 3.7795294 0 0 0 16.542969 43.191406 A 3.7795294 3.7795294 0 0 0 20.322266 39.410156 A 3.7795294 3.7795294 0 0 0 16.542969 35.630859 z M 16.542969 37.521484 A 1.88976 1.88976 0 0 1 18.431641 39.410156 A 1.88976 1.88976 0 0 1 16.542969 41.300781 A 1.88976 1.88976 0 0 1 14.652344 39.410156 A 1.88976 1.88976 0 0 1 16.542969 37.521484 z "
         transform="scale(104.16667)"
         id="circle170" />
    </g>
    <g
       style="fill:#000000; fill-opacity:1.0;  stroke:#000000; stroke-width:3.93701; stroke-opacity:1;  stroke-linecap:round; stroke-linejoin:round;"
       id="g174" />
    <g
       id="g176" />
    <g
       style="fill:#000000; fill-opacity:1.0;  stroke:#000000; stroke-width:3.93701; stroke-opacity:1;  stroke-linecap:round; stroke-linejoin:round;"
       id="g178" />
    <g
       style="fill:#000000; fill-opacity:1.0;  stroke:#000000; stroke-width:0; stroke-opacity:1;  stroke-linecap:round; stroke-linejoin:round;"
       id="g182">
      <path
         style="stroke-width:0"
         d="M 6.9433594 64.431641 A 3.7795294 3.7795294 0 0 0 3.1640625 68.210938 A 3.7795294 3.7795294 0 0 0 6.9433594 71.990234 A 3.7795294 3.7795294 0 0 0 10.722656 68.210938 A 3.7795294 3.7795294 0 0 0 6.9433594 64.431641 z M 6.9433594 66.320312 A 1.88976 1.88976 0 0 1 8.8320312 68.210938 A 1.88976 1.88976 0 0 1 6.9433594 70.101562 A 1.88976 1.88976 0 0 1 5.0527344 68.210938 A 1.88976 1.88976 0 0 1 6.9433594 66.320312 z "
         transform="scale(104.16667)"
         id="circle180" />
    </g>
    <g
       style="fill:#000000; fill-opacity:1.0;  stroke:#000000; stroke-width:3.93701; stroke-opacity:1;  stroke-linecap:round; stroke-linejoin:round;"
       id="g184" />
    <g
       id="g186" />
    <g
       id="g188" />
    <g
       style="fill:#000000; fill-opacity:1.0;  stroke:#000000; stroke-width:3.93701; stroke-opacity:1;  stroke-linecap:round; stroke-linejoin:round;"
       id="g190" />
    <g
       style="fill:#000000; fill-opacity:1.0;  stroke:#000000; stroke-width:393.701; stroke-opacity:1;  stroke-linecap:round; stroke-linejoin:round;"
       id="g192" />
    <g
       style="fill:#000000; fill-opacity:0.0;  stroke:#000000; stroke-width:393.701; stroke-opacity:1;  stroke-linecap:round; stroke-linejoin:round;"
       id="g230">
      <path
         d="M3223 14605 L723 12105 "
         id="path194" />
      <path
         d="M3223 19605 L3223 14605 "
         id="path196" />
      <path
         d="M 723,12105 V 7313.3333"
         id="path198"
         inkscape:connector-curvature="0"
         sodipodi:nodetypes="cc"
         style="stroke-linecap:butt" />
      <path
         d="M4323 11705 L1723 9105 "
         id="path200" />
      <path
         d="M4323 19605 L4323 11705 "
         id="path202" />
      <path
         d="M 1723,9105 V 4313.3333"
         id="path204"
         style="stroke-linecap:butt"
         inkscape:connector-curvature="0"
         sodipodi:nodetypes="cc" />
      <path
         d="M5423 8805 L2723 6105 "
         id="path206" />
      <path
         d="M 2723,6105 V 1313.3333"
         id="path208"
         inkscape:connector-curvature="0"
         sodipodi:nodetypes="cc"
         style="stroke-linecap:butt" />
      <path
         d="M5423 19605 L5423 8805 "
         id="path210" />
      <path
         d="M6523 8805 L9223 6105 "
         id="path212" />
      <path
         d="M6523 19605 L6523 8805 "
         id="path214" />
      <path
         d="M 9223,6105 V 1313.3333"
         id="path216"
         inkscape:connector-curvature="0"
         sodipodi:nodetypes="cc"
         style="stroke-linecap:butt" />
      <path
         d="M7623 11705 L10223 9105 "
         id="path218" />
      <path
         d="M7623 19605 L7623 11705 "
         id="path220" />
      <path
         d="M 10223,9105 V 4313.3333"
         id="path222"
         inkscape:connector-curvature="0"
         sodipodi:nodetypes="cc"
         style="stroke-linecap:butt" />
      <path
         d="M8723 14605 L11223 12105 "
         id="path224" />
      <path
         d="M8723 19605 L8723 14605 "
         id="path226" />
      <path
         d="M 11223,12105 V 7313.3333"
         id="path228"
         inkscape:connector-curvature="0"
         sodipodi:nodetypes="cc"
         style="stroke-width:393.75001454;stroke-miterlimit:4;stroke-dasharray:none;stroke-linecap:butt" />
    </g>
    <g
       id="g232" />
  </g>
  <g
     style="fill:#FFFFFF; fill-opacity:0.0;  stroke:#FFFFFF; stroke-width:393.701; stroke-opacity:1;  stroke-linecap:round; stroke-linejoin:round;"
     id="g236" />
  <g
     style="fill:#FFFFFF; fill-opacity:1.0;  stroke:#FFFFFF; stroke-width:0; stroke-opacity:1;  stroke-linecap:round; stroke-linejoin:round;"
     id="g240" />
  <g
     style="fill:#FFFFFF; fill-opacity:1.0;  stroke:#FFFFFF; stroke-width:3.93701; stroke-opacity:1;  stroke-linecap:round; stroke-linejoin:round;"
     id="g242" />
  <g
     style="fill:#FFFFFF; fill-opacity:1.0;  stroke:#FFFFFF; stroke-width:0; stroke-opacity:1;  stroke-linecap:round; stroke-linejoin:round;"
     id="g246" />
  <g
     style="fill:#FFFFFF; fill-opacity:1.0;  stroke:#FFFFFF; stroke-width:3.93701; stroke-opacity:1;  stroke-linecap:round; stroke-linejoin:round;"
     id="g248" />
  <g
     style="fill:#FFFFFF; fill-opacity:1.0;  stroke:#FFFFFF; stroke-width:0; stroke-opacity:1;  stroke-linecap:round; stroke-linejoin:round;"
     id="g252" />
  <g
     style="fill:#FFFFFF; fill-opacity:1.0;  stroke:#FFFFFF; stroke-width:3.93701; stroke-opacity:1;  stroke-linecap:round; stroke-linejoin:round;"
     id="g254" />
  <g
     style="fill:#FFFFFF; fill-opacity:1.0;  stroke:#FFFFFF; stroke-width:0; stroke-opacity:1;  stroke-linecap:round; stroke-linejoin:round;"
     id="g258" />
  <g
     style="fill:#FFFFFF; fill-opacity:1.0;  stroke:#FFFFFF; stroke-width:3.93701; stroke-opacity:1;  stroke-linecap:round; stroke-linejoin:round;"
     id="g260" />
  <g
     style="fill:#FFFFFF; fill-opacity:1.0;  stroke:#FFFFFF; stroke-width:0; stroke-opacity:1;  stroke-linecap:round; stroke-linejoin:round;"
     id="g264" />
  <g
     style="fill:#FFFFFF; fill-opacity:1.0;  stroke:#FFFFFF; stroke-width:3.93701; stroke-opacity:1;  stroke-linecap:round; stroke-linejoin:round;"
     id="g266" />
  <g
     style="fill:#FFFFFF; fill-opacity:1.0;  stroke:#FFFFFF; stroke-width:0; stroke-opacity:1;  stroke-linecap:round; stroke-linejoin:round;"
     id="g270" />
  <g
     style="fill:#FFFFFF; fill-opacity:1.0;  stroke:#FFFFFF; stroke-width:3.93701; stroke-opacity:1;  stroke-linecap:round; stroke-linejoin:round;"
     id="g272" />
  <g
     style="fill:#000000; fill-opacity:1.0;  stroke:#000000; stroke-width:3.93701; stroke-opacity:1;  stroke-linecap:round; stroke-linejoin:round;"
     id="g300">
    <g
       id="g274" />
    <g
       id="g276" />
    <g
       id="g278" />
    <g
       id="g280" />
    <g
       id="g282" />
    <g
       id="g284" />
    <g
       id="g286" />
    <g
       id="g288" />
    <g
       id="g290" />
    <g
       id="g292" />
    <g
       id="g294" />
    <g
       id="g296" />
    <g
       id="g298" />
  </g>
</svg>
